<svg id="Layer_1" data-name="Layer 1" xmlns="http://www.w3.org/2000/svg" viewBox="0 0 841.89 595.28"><defs><style>.cls-1{fill:#dfe6ef;}.cls-2,.cls-4{fill:#2a4ca0;}.cls-2{stroke:#dfe6ef;stroke-miterlimit:10;stroke-width:4px;}.cls-3,.cls-6{fill:#fff;}.cls-5{fill:#fefefe;}.cls-6{font-size:49.72px;font-family:LeagueSpartan-Bold, League Spartan;font-weight:700;letter-spacing:-0.01em;}.cls-7{letter-spacing:-0.06em;}.cls-8{letter-spacing:-0.04em;}.cls-9{letter-spacing:-0.01em;}.cls-10{letter-spacing:-0.07em;}.cls-11{letter-spacing:-0.05em;}</style></defs><circle class="cls-1" cx="233.01" cy="294.38" r="125.55"/><path class="cls-2" d="M204.16,329.75c.75-5.18,1.49-10.25,2.25-15.53l24.86,9.45c4,1.52,8,3.09,12,4.56,1.22.44,1.78.91,1.41,2.34-1,3.83-1.94,7.67-2.65,11.55-.34,1.83-1.07,1.84-2.54,1.44-10.78-2.94-21.58-5.82-32.37-8.72-.48-.13-1-.2-1.57-.33.08,2.63,1.09,4,3.76,4.63,10,2.38,19.86,5.07,29.82,7.51,1.75.43,1.88,1,1.32,2.51-2.77,7.72-5.4,15.49-8.21,23.59A22.62,22.62,0,0,0,243.51,365c15.57-18.65,32.61-36,48.95-53.92,1.31-1.43.87-1.9-.49-2.61a40.1,40.1,0,0,0-10.78-4.17c-2.9-.57-4.41-2.43-5.66-4.86-.69-1.32.42-1.67,1-2.24q14.13-15,28.32-30c6.26-6.61,12.55-13.19,18.75-19.86a2.45,2.45,0,0,1,3.24-.71c3.78,1.66,7.57,3.28,10.87,5.81a172.22,172.22,0,0,1,27.51,25.64c3,3.56,5.59,7.36,6.87,11.93a2,2,0,0,1-.45,2.27c-2.45,2.53-4.85,5.11-7.44,7.85-2.78-8-7.89-14.22-13.47-20-6.89-7.18-14.05-14.09-22.35-19.68a27.46,27.46,0,0,0-9.72-4.64c-1.08-.22-2.17-.43-2.68,1,5.77,1.45,10.44,4.75,14.82,8.39a190.39,190.39,0,0,1,21.83,21.05,54.35,54.35,0,0,1,8.62,13.29c.9,2,.9,3.39-.91,4.71a16.67,16.67,0,0,0-1.86,1.94c-3.33-8.93-9.33-15.77-15.8-22.27-6.13-6.17-12.44-12.12-19.65-17-3.2-2.18-6.48-4.22-10.39-4.95-1.12-.22-2-.26-2.45,1.08,5.57,1.3,10.13,4.48,14.39,8a182.86,182.86,0,0,1,23.2,22.52,53,53,0,0,1,7.56,11.88c1,2.22.89,3.72-1,5.14a14.56,14.56,0,0,0-1.48,1.53c-2.95-8.14-8.24-14.53-14.08-20.53-6.7-6.9-13.62-13.56-21.62-19-2.93-2-5.95-3.85-9.46-4.62-1-.23-2.31-.79-3.05.75,12.36,4.25,20.73,13.77,29.78,22.34a75.11,75.11,0,0,1,13.52,16.6c3.48,6,3.52,6-1.23,11Q335.59,330.31,324.56,342c-2,2.08-2.8,2.11-5.06.35a8.63,8.63,0,0,1-3.21-5.26c-.79-3.69-2.72-6.85-4.81-9.92-.5-.74-.84-1.39-1.81-.32-17.78,19.6-36.94,37.93-53.72,58.46-3.56,4.34-4,8.88-2.81,13.92q.87,3.69,2.06,7.28c.43,1.33.41,1.84-1.23,2.11a116.6,116.6,0,0,1-71.75-10.44A4.28,4.28,0,0,1,180,395.1q-15.63-49.38-31.26-98.77a4.1,4.1,0,0,0-2.68-2.93c-12.59-4.93-25.11-10-37.72-14.9a12.19,12.19,0,0,1-7.84-8.48C97.13,258.84,93.59,247.7,90,236.6a13.12,13.12,0,0,1,.94-10.89c6.16-11.58,12.14-23.25,18.15-34.9.77-1.5,1.53-2.93,3.46-2.77s2.68,1.73,3.21,3.42q6.77,21.78,13.59,43.55c1.7,5.41,5,7.86,10.57,8,4.39.08,8.77,0,13.16.14a5.73,5.73,0,0,0,5.08-2.75q4.4-6.32,8.75-12.68a9.75,9.75,0,0,0,1.25-8.68c-5.93-19.81-11.68-39.66-18.27-59.26-.56-1.67-1-3.39-1.38-5.11-.47-2,.35-3.39,1.92-4.56a3.82,3.82,0,0,1,4.45-.28q20.58,10.41,41.2,20.75a10.27,10.27,0,0,1,5.33,6.4q6.45,20.43,13.05,40.81a12.28,12.28,0,0,1-.7,9.52c-8.32,17.26-16.55,34.56-24.85,51.83a4.65,4.65,0,0,0-.3,3.81c5,15.26,9.86,30.55,14.78,45.82C203.49,329.11,203.53,329.56,204.16,329.75Zm73.49-29.13,0,.06.06,0a4.53,4.53,0,0,0,3.5,2.17A38.53,38.53,0,0,1,293,307.61c1,.61,2,1.26,2.92-.25.62-1,1.15,0,1.57.41,5.1,4.53,10.14,9.11,15.27,13.6,1.11,1,1.14,1.62.08,2.56-.62.54-1.46,1-.57,2.19a30,30,0,0,1,5.48,11.78,4.1,4.1,0,0,0,2.78,3.3c.47-1.2-.37-2-.64-2.93a6.46,6.46,0,0,1-.12-3,10.2,10.2,0,0,0-.45-4.46c-2.75-9.45-9.76-15.74-16.58-22.09a32.63,32.63,0,0,0-12.37-7.1c-2.4-.76-4.86-1.66-7.38-.87A7.65,7.65,0,0,1,277.65,300.62Zm32.87.46a6.59,6.59,0,0,0,6.74,6.68,8.78,8.78,0,0,0,8.34-8.53,6.63,6.63,0,0,0-6.82-6.63A8.51,8.51,0,0,0,310.52,301.08Z"/><path class="cls-3" d="M172.82,393.26c-38.59-22.86-58.13-66.22-55.45-104.7L121,290c6.8,2.7,13.59,5.42,20.4,8.08a3.13,3.13,0,0,1,2.2,2.12q14.6,46.29,29.26,92.57C172.92,392.85,172.88,392.94,172.82,393.26Z"/><path class="cls-3" d="M309.36,336c1,1.06,1,2.29,1.31,3.39,1.53,5.14,4.7,8.62,10,10a6.86,6.86,0,0,0,7.28-2.21c4.3-4.63,8.67-9.2,13-13.79a10.42,10.42,0,0,1,1.82-1.75,93.6,93.6,0,0,1-9.8,21.77q-24.27,39.84-69.12,52.75c-1.79.51-2.56.26-3-1.6-.58-2.63-1.49-5.18-2.07-7.8a8.45,8.45,0,0,1,1.7-7.53c10.86-13.81,23.46-26,35.34-38.89C300.29,345.56,304.83,340.83,309.36,336Z"/><path class="cls-3" d="M338.75,245.79a80,80,0,0,0-10.35-4.91c-4.13-1.47-6-1-9,2.17q-19.89,21-39.78,42.09c-1.29,1.37-1.76,1.21-2.52-.36a19.24,19.24,0,0,0-2.24-3c3.91-1,7.6-2.5,8.7-6.86a11.7,11.7,0,0,0-2.86-11.13c.61-.18,1-.31,1.39-.41,5.09-1.25,7.76-3.85,8.23-8,.56-5-1.75-9.66-6.18-11.71-3.5-1.63-7.17-2.9-10.74-4.39-.62-.26-1.84-.26-1.56-1.27.35-1.24,1.39-.44,2.11-.25,5,1.29,9.91,2.65,14.88,3.93,3.93,1,7.12-.94,7.92-4.91,1-4.78,1.86-9.59,2.65-14.4.67-4.11-1.09-6.63-5.12-7.64-2.53-.64-5-1.34-7.6-1.88-1.16-.25-1.48-.6-1.17-1.84,1.35-5.48,2.59-11,3.84-16.48.27-1.2.5-1.75,1.91-.92C312.25,206,328,223.16,338.75,245.79Z"/><path class="cls-4" d="M293.36,222c-.82,4.33-1.71,8.53-2.39,12.77-.32,2-1.45.88-2.17.69q-18.39-4.86-36.76-9.82c-8.36-2.25-16.7-4.54-25.08-6.71-1.35-.35-1.75-.74-1.49-2.18.63-3.56,1.12-7.15,1.54-10.74.14-1.25.47-1.54,1.71-1.23q31.56,7.83,63.14,15.58C292.78,220.54,293.77,220.71,293.36,222Z"/><path class="cls-3" d="M219.38,213.42c-.7-2.2-1.41-4.4-2.11-6.61-2.5-7.85-4.89-15.74-7.56-23.54-.8-2.34-.3-2.84,2-3.26a123.91,123.91,0,0,1,35.5-1.11c.82.09,1.63.31,2.44.46-2.91,6.67-4.2,13.74-6.21,20.59-.5,1.67-1,2.11-2.69,1.62-3.72-1-7.49-1.93-11.26-2.83-4.63-1.11-7.76,1.08-8.4,5.81q-.6,4.38-1.22,8.76Z"/><path class="cls-4" d="M284.39,188.43c-.6,4.77-2.24,9.91-3.32,15.17-.59,2.87-1.33,5.72-2,8.59-.25,1.12-.59,1.65-2,1.28-9.18-2.37-18.38-4.64-27.6-6.87-1.38-.33-1.44-.95-1.11-2.1,1.78-6.3,3.52-12.61,5.27-18.91a10,10,0,0,1,3.74-5.54c3.3-2.43,6.31-5.4,10.45-6.38C278.51,171.14,284.19,180.59,284.39,188.43ZM260,189.62a9.23,9.23,0,0,0,9.08,9.28,10.84,10.84,0,0,0,10.58-10.45,9.15,9.15,0,0,0-9.37-9.2A10.6,10.6,0,0,0,260,189.62Z"/><path class="cls-4" d="M262.55,251.15c-.16-1.22-1.33-1.06-2-1.36q-17.87-7.8-35.8-15.46c-1.75-.75-3.38-1.63-4-3.54-.59-1.71-.42-3.06,1.78-3.6a7.38,7.38,0,0,1,4.67.18l53.3,21.21a7.82,7.82,0,0,1,1.14.52c2.21,1.24,3.42,4.15,2.62,6.26-.63,1.65-3.69,2.77-6,1.92-3.37-1.27-6.65-2.79-10-4.14-.69-.28-1.31-1.06-2.21-.53l.07.07c-.33-1.07-1.2-1.08-2.08-1.07l.06,0c-.39-.59-.82-1.06-1.58-.52Z"/><path class="cls-4" d="M261,271.34c-.17-1.2-1.34-1-2-1.35q-20.41-8.91-40.87-17.68c-1.88-.8-3.42-1.82-4-3.86-.44-1.49-.13-2.58,1.61-3.06a7.48,7.48,0,0,1,4.92.07l53.53,21.29c.16.06.33.09.48.16,2.67,1.28,4.07,4.4,3,6.72-.74,1.63-4,2.56-6.37,1.64-2.58-1-5.06-2.24-7.62-3.28-.85-.34-1.64-1.11-2.7-.69Z"/><path class="cls-4" d="M248.89,307.8c-4.15-2.51-8.75-4-13.15-6-9.74-4.31-19.55-8.46-29.33-12.69-2.88-1.25-4.73-3.87-4-5.65.58-1.49,4.1-2.13,6.71-1.09q26.67,10.56,53.31,21.18l.48.18c2.75,1.26,4.15,4.15,3.2,6.61-.69,1.78-3.94,2.72-6.49,1.73s-4.91-2.16-7.4-3.16c-.74-.3-1.4-1-2.33-.65l0,.05c-.06-.77-.59-.59-1.06-.55Z"/><path class="cls-4" d="M201.51,300.64a5.8,5.8,0,0,1,2.7.6q26.43,10.51,52.86,21c2.1.83,3.66,2.05,4,4.41.38,2.77-.64,4.08-3.41,4.52a7.38,7.38,0,0,1-4.16-.69l-52.21-22.59a10.11,10.11,0,0,1-1.6-.74c-1.67-1.09-2.86-2.68-2.37-4.64S199.94,300.92,201.51,300.64Z"/><path class="cls-4" d="M254.92,289.53c-4.56-2.64-9.55-4.34-14.34-6.46C231.29,279,222,275,212.62,271c-1.9-.82-3.31-2-3.74-4.06a2,2,0,0,1,1.53-2.69,7.17,7.17,0,0,1,4.92,0q26.89,10.71,53.81,21.37a6.3,6.3,0,0,1,.9.45c2.21,1.27,3.38,4.2,2.52,6.3-.63,1.54-3.58,2.66-5.79,1.87-3.15-1.13-6.19-2.56-9.29-3.84a6.19,6.19,0,0,0-2.6-.88Z"/><path class="cls-3" d="M145.69,236.87c-2.27,0-4.55.14-6.81,0a3.85,3.85,0,0,1-2.93-6.19,118.68,118.68,0,0,1,20.21-23.44c1.55-1.39,2-1.06,2.45.74,1.1,4.05,2.32,8.07,3.59,12.07a5.45,5.45,0,0,1-.89,5.21c-2.32,3.2-4.6,6.43-6.72,9.76a3.62,3.62,0,0,1-3.85,2,47.2,47.2,0,0,0-5.05,0Z"/><path class="cls-4" d="M266,252.61c.66,1.29,1.94,2.63.72,4.08s-2.84.95-4.42.32q-14.74-5.85-29.51-11.65c-.16-.06-.3-.16-.46-.21-1.58-.51-3.12-1.55-2.47-3.18s2.59-1.24,4.05-.72c8.86,3.15,17.7,6.35,26.55,9.53.66.24,1.29.75,2.07.37l-.06,0c.35.72.83,1,1.58.52l-.06,0c.4.93,1.24,1,2.08,1.07Z"/><path class="cls-4" d="M249.86,308.27c-.4.21-.3.48-.11.79.68,1.12,1.24,2.36.12,3.44s-2.39.93-3.76.38c-4.9-2-9.82-3.89-14.74-5.82l-15-5.89a16.33,16.33,0,0,1-1.62-.68c-1.12-.59-2-1.52-1.69-2.79s1.73-1.19,2.8-1.07a12.12,12.12,0,0,1,2.66.74c9.39,3.37,18.77,6.78,28.17,10.13.67.24,1.34,1.15,2.19.3l-.06,0c0,.87.36,1,1.06.55Z"/><path class="cls-4" d="M254.88,289.48c0,.07-.16.15-.14.2.38,1.34,1.65,2.73.23,4s-2.93.66-4.47,0c-9.73-3.87-19.48-7.68-29.22-11.51-.47-.19-.95-.36-1.39-.58-1.14-.58-2-1.56-1.67-2.79s1.75-1.18,2.83-1a14.14,14.14,0,0,1,2.88.84q15.24,5.52,30.45,11.09c.35.13.4-.06.54-.22Z"/><path class="cls-4" d="M261,271.3c-.25.38,0,.57.25.81.85,1,1.29,2.2.53,3.24a2.91,2.91,0,0,1-3.65.8q-15.7-6.19-31.41-12.39c-1.36-.53-2.6-1.66-1.93-3.05s2.44-1.23,3.86-.73c7.51,2.69,15,5.47,22.52,8.1,3.27,1.14,6.39,2.75,9.87,3.26Z"/><path class="cls-4" d="M266.37,233c-.26,2-.61,4.19-.85,6.45-.13,1.23-.61,1.36-1.64.88-6.11-2.79-12.2-5.61-18.37-8.27-1.92-.83-.89-2-.76-3.14.38-3.21.42-3.19,3.46-2.39l16.57,4.34C265.76,231.13,266.91,231.18,266.37,233Z"/><path class="cls-3" d="M272.14,305.7c3.19,3.86,7.54,4.24,11.76,5.7l-16.75,18.13c.28-4.49-.88-8-4.13-10.86,3.15-.78,5.88-1.79,7.72-4.26S272.39,309.1,272.14,305.7Z"/><path class="cls-3" d="M260.3,336.89l-13.89,15.17-.33-.32c1.08-4.88,2.18-9.76,3.24-14.65.23-1,.35-1.8,1.73-1.08A12.86,12.86,0,0,0,260.3,336.89Z"/><path class="cls-3" d="M196.17,286.05c-1.56-2.89-1.66-5.35-.08-8.16,2.36-4.2,4.24-8.67,6.5-13a12.06,12.06,0,0,0,5.64,10.75C199,276.37,196.53,278.49,196.17,286.05Z"/><path class="cls-3" d="M208.74,251.61a13.24,13.24,0,0,0,6.59,6.19c-4.28-.3-7.73.43-11.1,3.26Z"/><path class="cls-3" d="M197,288.44c1.82,2.85,3.61,4.76,6.22,5.9C198,294.69,199.13,296.21,197,288.44Z"/><path class="cls-3" d="M219.71,238.86l-4.72.26C216.07,235.5,216.07,235.5,219.71,238.86Z"/><path class="cls-5" d="M277.63,300.61a7.66,7.66,0,0,0,5.38.15c2.52-.79,5,.11,7.38.87a32.63,32.63,0,0,1,12.37,7.1c6.82,6.35,13.83,12.64,16.58,22.09a10.2,10.2,0,0,1,.45,4.46,6.46,6.46,0,0,0,.12,3c.27.92,1.11,1.73.64,2.93a4.1,4.1,0,0,1-2.78-3.3,30,30,0,0,0-5.48-11.78c-.89-1.18-.05-1.65.57-2.19,1.06-.94,1-1.59-.08-2.56-5.13-4.49-10.17-9.07-15.27-13.6-.42-.37-.95-1.38-1.57-.41-.95,1.51-1.89.86-2.92.25a38.53,38.53,0,0,0-11.85-4.78,4.53,4.53,0,0,1-3.5-2.17Z"/><path class="cls-5" d="M310.52,301.08a8.51,8.51,0,0,1,8.26-8.48,6.63,6.63,0,0,1,6.82,6.63,8.78,8.78,0,0,1-8.34,8.53A6.59,6.59,0,0,1,310.52,301.08Zm7,.59a2.62,2.62,0,0,0,2-2.15c.11-.61-.35-.95-.92-.83a2.34,2.34,0,0,0-2,2C316.52,301.21,316.63,301.7,317.49,301.67Z"/><path class="cls-5" d="M277.67,300.66l-.06,0s0-.06,0-.07S277.67,300.66,277.67,300.66Z"/><path class="cls-5" d="M260,189.62a10.6,10.6,0,0,1,10.29-10.37,9.15,9.15,0,0,1,9.37,9.2,10.84,10.84,0,0,1-10.58,10.45A9.23,9.23,0,0,1,260,189.62Zm9,3.21c2.37,0,4.68-2.18,4.59-4.34a3,3,0,0,0-3.13-3.19,4.48,4.48,0,0,0-4.38,4.29A3.07,3.07,0,0,0,269,192.83Z"/><path class="cls-5" d="M266.09,252.68c-.84-.08-1.68-.14-2.08-1.07C264.89,251.6,265.76,251.61,266.09,252.68Z"/><path class="cls-5" d="M264.07,251.64c-.75.51-1.23.2-1.58-.52C263.25,250.58,263.68,251.05,264.07,251.64Z"/><path class="cls-5" d="M249.89,308.32c-.7.49-1.06.32-1.06-.55C249.3,307.73,249.83,307.55,249.89,308.32Z"/><path class="cls-3" d="M317.49,301.67c-.86,0-1-.46-.88-1a2.34,2.34,0,0,1,2-2c.57-.12,1,.22.92.83A2.62,2.62,0,0,1,317.49,301.67Z"/><path class="cls-3" d="M269,192.83a3.07,3.07,0,0,1-2.92-3.24,4.48,4.48,0,0,1,4.38-4.29,3,3,0,0,1,3.13,3.19C273.66,190.65,271.35,192.86,269,192.83Z"/><text class="cls-6" transform="translate(385.78 288.52)">KALSAN A<tspan class="cls-7" x="268.26" y="0">U</tspan><tspan class="cls-8" x="302.37" y="0">T</tspan><tspan class="cls-9" x="329.92" y="0">O</tspan><tspan x="16.29" y="59.67">S</tspan><tspan class="cls-10" x="49.2" y="59.67">P</tspan><tspan class="cls-9" x="78.64" y="59.67">ARE </tspan><tspan class="cls-10" x="193.65" y="59.67">P</tspan><tspan class="cls-9" x="223.09" y="59.67">A</tspan><tspan class="cls-11" x="261.57" y="59.67">R</tspan><tspan class="cls-9" x="294.69" y="59.67">TS</tspan></text></svg>