<svg id="Layer_1" data-name="Layer 1" xmlns="http://www.w3.org/2000/svg" viewBox="0 0 595.28 595.28"><defs><style>.cls-1,.cls-4{fill:#272323;}.cls-2,.cls-8{fill:#2a4ca0;}.cls-3{fill:#fefefe;}.cls-4{font-size:56.09px;font-family:LeagueSpartan-Bold, League Spartan;font-weight:700;}.cls-10,.cls-4{letter-spacing:-0.01em;}.cls-5{letter-spacing:-0.06em;}.cls-6{letter-spacing:-0.04em;}.cls-7,.cls-8{letter-spacing:-0.01em;}.cls-9{letter-spacing:-0.07em;}.cls-11{letter-spacing:-0.05em;}</style></defs><path class="cls-1" d="M252.69,285.52c1.1-7.55,2.17-14.94,3.29-22.63l36.22,13.76c5.83,2.22,11.63,4.51,17.49,6.65,1.77.64,2.59,1.33,2.05,3.41-1.43,5.58-2.82,11.17-3.86,16.83-.49,2.65-1.57,2.67-3.69,2.09-15.71-4.28-31.45-8.48-47.18-12.7-.69-.19-1.4-.3-2.28-.48.12,3.82,1.59,5.82,5.48,6.74,14.52,3.47,28.94,7.39,43.45,10.95,2.55.62,2.73,1.37,1.91,3.66-4,11.25-7.86,22.56-11.95,34.37,7.1-2,12.25-6.33,16.4-11.29,22.69-27.18,47.52-52.41,71.32-78.56,1.91-2.09,1.26-2.77-.71-3.81a58.6,58.6,0,0,0-15.71-6.07c-4.23-.84-6.43-3.55-8.25-7.08-1-1.92.61-2.43,1.39-3.26q20.58-21.87,41.26-43.65c9.12-9.63,18.28-19.22,27.31-28.94,1.52-1.65,2.81-1.88,4.73-1,5.49,2.42,11,4.79,15.83,8.47,14.56,11.15,28.23,23.29,40.07,37.36,4.36,5.18,8.14,10.72,10,17.38a3,3,0,0,1-.65,3.31c-3.58,3.68-7.07,7.44-10.84,11.42-4-11.7-11.49-20.7-19.62-29.17-10-10.47-20.48-20.52-32.56-28.68-4.38-2.95-8.89-5.67-14.17-6.75-1.56-.32-3.15-.63-3.9,1.49,8.41,2.12,15.21,6.93,21.6,12.24a278.16,278.16,0,0,1,31.8,30.65,79.18,79.18,0,0,1,12.55,19.37c1.31,2.88,1.31,4.93-1.32,6.86a22.51,22.51,0,0,0-2.71,2.83c-4.86-13-13.6-23-23-32.45-8.93-9-18.13-17.65-28.63-24.81-4.66-3.18-9.44-6.14-15.14-7.21-1.63-.31-2.9-.38-3.56,1.58,8.1,1.88,14.75,6.53,21,11.64a267.31,267.31,0,0,1,33.81,32.8,77.51,77.51,0,0,1,11,17.32c1.53,3.23,1.29,5.41-1.49,7.48a20.14,20.14,0,0,0-2.16,2.23c-4.3-11.86-12-21.17-20.51-29.91-9.77-10-19.85-19.75-31.5-27.66-4.27-2.89-8.67-5.6-13.78-6.73-1.53-.33-3.38-1.14-4.45,1.11,18,6.18,30.19,20.05,43.38,32.54a109.4,109.4,0,0,1,19.71,24.19c5.07,8.69,5.13,8.71-1.79,16q-16.12,17-32.17,34c-2.87,3-4.09,3.07-7.39.51a12.6,12.6,0,0,1-4.66-7.67c-1.16-5.38-4-10-7-14.45-.73-1.08-1.23-2-2.65-.47-25.9,28.56-53.81,55.26-78.26,85.17-5.17,6.33-5.81,12.94-4.08,20.29q1.26,5.36,3,10.6c.63,1.93.6,2.68-1.79,3.07-36.46,6-71.3,1-104.53-15.21-2.06-1-2.65-2.57-3.25-4.46q-22.77-72-45.54-143.91a6,6,0,0,0-3.9-4.26c-18.34-7.18-36.59-14.6-55-21.72a17.73,17.73,0,0,1-11.42-12.34c-4.89-16.3-10-32.52-15.32-48.7a19.1,19.1,0,0,1,1.38-15.86c9-16.87,17.69-33.87,26.44-50.85,1.13-2.17,2.23-4.26,5-4s3.89,2.53,4.66,5q9.87,31.74,19.81,63.46c2.47,7.88,7.22,11.45,15.4,11.58,6.39.1,12.78.07,19.16.2a8.38,8.38,0,0,0,7.41-4q6.4-9.21,12.74-18.48a14.18,14.18,0,0,0,1.83-12.64c-8.64-28.85-17-57.78-26.62-86.34-.82-2.43-1.41-4.94-2-7.44-.69-2.86.51-4.93,2.79-6.64s4.16-1.59,6.49-.41q30,15.17,60,30.23a14.94,14.94,0,0,1,7.76,9.32q9.41,29.76,19,59.46a17.77,17.77,0,0,1-1,13.87c-12.12,25.14-24.11,50.35-36.21,75.51a6.8,6.8,0,0,0-.42,5.55c7.24,22.23,14.36,44.5,21.52,66.76C251.72,284.59,251.78,285.23,252.69,285.52Zm107.07-42.44-.06.09.09,0c1.08,2.06,3,2.73,5.1,3.15a56.37,56.37,0,0,1,17.26,7c1.5.88,2.87,1.84,4.25-.36.9-1.43,1.68,0,2.29.6,7.43,6.59,14.78,13.27,22.26,19.81,1.61,1.41,1.66,2.35.11,3.72-.91.8-2.13,1.47-.83,3.2a44,44,0,0,1,8,17.16,6,6,0,0,0,4,4.8c.69-1.74-.53-2.92-.94-4.26a9.81,9.81,0,0,1-.17-4.37,14.57,14.57,0,0,0-.66-6.49c-4-13.77-14.2-22.93-24.15-32.19a47.64,47.64,0,0,0-18-10.33c-3.49-1.12-7.08-2.42-10.75-1.28A11.15,11.15,0,0,1,359.76,243.08Zm47.9.67a9.58,9.58,0,0,0,9.81,9.73,12.8,12.8,0,0,0,12.15-12.43,9.66,9.66,0,0,0-9.94-9.66A12.39,12.39,0,0,0,407.66,243.75Z"/><path class="cls-2" d="M207,378.05c-56.22-33.31-84.7-96.49-80.79-152.54,1.85.73,3.61,1.41,5.35,2.11,9.9,3.93,19.79,7.89,29.72,11.77a4.56,4.56,0,0,1,3.21,3.08q21.25,67.46,42.62,134.88C207.18,377.45,207.12,377.58,207,378.05Z"/><path class="cls-2" d="M406,294.65c1.45,1.54,1.43,3.33,1.91,4.94,2.23,7.48,6.84,12.55,14.57,14.59,4.25,1.12,7.64,0,10.6-3.22,6.26-6.75,12.63-13.39,18.95-20.09a16,16,0,0,1,2.64-2.55,136.48,136.48,0,0,1-14.27,31.73q-35.36,58-100.71,76.84c-2.61.75-3.73.38-4.33-2.33-.84-3.82-2.17-7.54-3-11.36a12.33,12.33,0,0,1,2.48-11c15.82-20.12,34.17-37.91,51.48-56.66C392.75,308.55,399.35,301.66,406,294.65Z"/><path class="cls-2" d="M448.77,163.19A116.77,116.77,0,0,0,433.7,156c-6-2.15-8.77-1.44-13.12,3.16q-29,30.66-58,61.32c-1.88,2-2.57,1.76-3.67-.52-.72-1.51-2-2.74-3.27-4.37,5.7-1.53,11.07-3.65,12.67-10,1.5-5.93.12-11.36-4.16-16.21.88-.26,1.45-.45,2-.59,7.41-1.83,11.3-5.62,12-11.7.82-7.31-2.55-14.06-9-17.06-5.11-2.37-10.45-4.23-15.65-6.39-.92-.38-2.69-.38-2.28-1.84.5-1.82,2-.65,3.07-.38,7.24,1.88,14.45,3.87,21.69,5.73,5.72,1.48,10.37-1.36,11.53-7.15q2.12-10.46,3.86-21c1-6-1.59-9.65-7.46-11.13-3.68-.93-7.35-1.94-11.06-2.73-1.7-.36-2.17-.87-1.72-2.69,2-8,3.79-16,5.6-24,.4-1.74.73-2.55,2.78-1.34C410.17,105.19,433.05,130.23,448.77,163.19Z"/><path class="cls-1" d="M382.65,128.46c-1.2,6.31-2.5,12.43-3.48,18.6-.47,2.93-2.12,1.29-3.16,1q-26.81-7.1-53.56-14.32c-12.18-3.27-24.33-6.61-36.53-9.77-2-.51-2.55-1.08-2.18-3.17.92-5.19,1.64-10.42,2.24-15.66.21-1.81.68-2.23,2.5-1.78q46,11.4,92,22.69C381.8,126.4,383.24,126.65,382.65,128.46Z"/><path class="cls-2" d="M274.87,116q-1.55-4.82-3.08-9.62c-3.64-11.44-7.13-22.94-11-34.31-1.16-3.39-.44-4.13,2.91-4.74a180.45,180.45,0,0,1,51.72-1.61c1.2.13,2.38.44,3.55.67-4.23,9.71-6.11,20-9,30-.72,2.44-1.44,3.07-3.91,2.37-5.43-1.54-10.93-2.81-16.41-4.13-6.75-1.62-11.31,1.57-12.24,8.46-.58,4.26-1.18,8.51-1.77,12.76Z"/><path class="cls-1" d="M369.58,79.63c-.87,7-3.27,14.43-4.83,22.09-.86,4.2-1.94,8.34-2.89,12.52-.37,1.63-.86,2.4-2.92,1.87q-20.07-5.17-40.22-10c-2-.49-2.1-1.39-1.62-3.06,2.6-9.18,5.13-18.37,7.68-27.56a14.61,14.61,0,0,1,5.45-8.07c4.81-3.53,9.2-7.86,15.23-9.29C361,54.44,369.28,68.21,369.58,79.63Zm-35.53,1.74a13.44,13.44,0,0,0,13.23,13.51c8,.12,15.37-7.13,15.4-15.22A13.32,13.32,0,0,0,349,66.26,15.43,15.43,0,0,0,334.05,81.37Z"/><path class="cls-1" d="M337.76,171c-.23-1.77-1.94-1.53-3-2q-26-11.36-52.16-22.52c-2.55-1.09-4.92-2.38-5.87-5.16-.86-2.49-.62-4.46,2.59-5.25a10.78,10.78,0,0,1,6.81.27l77.65,30.9a15.52,15.52,0,0,1,1.67.75c3.21,1.81,5,6.05,3.81,9.12-.92,2.4-5.38,4.05-8.7,2.8-4.91-1.85-9.68-4.06-14.55-6-1-.41-1.91-1.55-3.22-.78l.09.11c-.48-1.55-1.74-1.58-3-1.56l.09.05c-.57-.87-1.2-1.55-2.31-.76Z"/><path class="cls-1" d="M335.5,200.42c-.24-1.76-1.94-1.53-3-2q-29.73-13-59.55-25.75c-2.73-1.17-5-2.64-5.84-5.61-.63-2.19-.18-3.77,2.35-4.47a10.76,10.76,0,0,1,7.17.11l78,31c.22.09.47.13.69.23,3.9,1.86,5.94,6.41,4.41,9.79-1.07,2.38-5.79,3.73-9.26,2.39-3.76-1.45-7.38-3.26-11.12-4.77-1.23-.5-2.38-1.63-3.93-1Z"/><path class="cls-1" d="M317.85,253.54c-6-3.66-12.74-5.89-19.15-8.73-14.19-6.28-28.48-12.33-42.72-18.49-4.2-1.82-6.9-5.64-5.88-8.23.85-2.18,6-3.1,9.78-1.59q38.85,15.39,77.67,30.86c.23.09.46.15.69.26,4,1.83,6.05,6,4.66,9.63-1,2.6-5.74,4-9.45,2.52s-7.16-3.14-10.78-4.61c-1.07-.43-2.05-1.43-3.4-.95l.05.08c-.08-1.11-.87-.85-1.55-.79Z"/><path class="cls-1" d="M248.84,243.1a8.69,8.69,0,0,1,3.93.87q38.5,15.33,77,30.64c3.06,1.22,5.33,3,5.8,6.43.55,4-.93,5.94-5,6.58a10.74,10.74,0,0,1-6.06-1l-76.07-32.92a15.87,15.87,0,0,1-2.33-1.07c-2.43-1.59-4.16-3.91-3.45-6.77S246.55,243.52,248.84,243.1Z"/><path class="cls-1" d="M326.65,226.93c-6.65-3.85-13.91-6.33-20.9-9.42-13.53-6-27.13-11.81-40.73-17.62-2.78-1.19-4.82-2.86-5.45-5.92-.39-1.93.11-3.28,2.23-3.91a10.4,10.4,0,0,1,7.17,0q39.19,15.6,78.4,31.13a10.7,10.7,0,0,1,1.31.66c3.22,1.85,4.92,6.12,3.66,9.18-.92,2.24-5.21,3.88-8.43,2.72-4.59-1.65-9-3.73-13.54-5.59-1.23-.5-2.35-1.35-3.78-1.28Z"/><path class="cls-2" d="M167.52,150.2c-3.31,0-6.64.21-9.93,0-4.72-.38-6.85-5.07-4.27-9A173,173,0,0,1,182.77,107c2.25-2,2.84-1.54,3.56,1.08,1.6,5.9,3.39,11.76,5.23,17.59a7.92,7.92,0,0,1-1.29,7.58c-3.38,4.66-6.71,9.37-9.8,14.22-1.41,2.23-2.94,3.23-5.6,2.93a69.28,69.28,0,0,0-7.35-.05Z"/><path class="cls-1" d="M342.82,173.12c1,1.89,2.83,3.85,1.05,5.95s-4.15,1.39-6.44.48q-21.48-8.53-43-17c-.23-.09-.44-.23-.67-.31-2.29-.74-4.54-2.25-3.59-4.63s3.76-1.81,5.89-1c12.91,4.59,25.79,9.26,38.68,13.89,1,.34,1.88,1.09,3,.53l-.09,0c.51,1,1.21,1.5,2.31.76l-.09-.05c.57,1.36,1.8,1.45,3,1.56Z"/><path class="cls-1" d="M319.27,254.21c-.57.32-.44.7-.16,1.17,1,1.63,1.81,3.42.18,5s-3.49,1.36-5.48.56c-7.14-2.87-14.31-5.67-21.48-8.48s-14.55-5.72-21.83-8.58a23.52,23.52,0,0,1-2.36-1c-1.64-.85-3-2.21-2.47-4s2.52-1.74,4.09-1.56a16.68,16.68,0,0,1,3.86,1.07c13.69,4.92,27.35,9.88,41.05,14.76,1,.34,1.95,1.67,3.18.44l-.08,0c0,1.25.53,1.51,1.55.79Z"/><path class="cls-1" d="M326.59,226.85c-.08.09-.23.21-.21.28.56,2,2.41,4,.34,5.88s-4.27,1-6.52.06c-14.17-5.64-28.38-11.19-42.57-16.78-.68-.27-1.37-.51-2-.84-1.66-.85-3-2.27-2.44-4.06s2.56-1.73,4.13-1.52a20.37,20.37,0,0,1,4.2,1.23q22.19,8,44.36,16.16c.51.19.58-.09.79-.33Z"/><path class="cls-1" d="M335.44,200.35c-.37.56.06.84.37,1.2,1.23,1.41,1.88,3.19.78,4.71-1.25,1.72-3.27,2-5.33,1.16q-22.89-9-45.76-18c-2-.78-3.79-2.42-2.8-4.44s3.55-1.81,5.61-1.07c10.94,3.92,21.84,8,32.81,11.79,4.77,1.66,9.31,4,14.38,4.76Z"/><path class="cls-1" d="M343.33,144.58c-.38,2.84-.9,6.11-1.25,9.4-.19,1.79-.88,2-2.38,1.28-8.9-4.06-17.78-8.17-26.76-12-2.8-1.21-1.31-3-1.12-4.58.57-4.68.62-4.65,5.05-3.48q12.08,3.18,24.15,6.32C342.43,141.84,344.12,141.91,343.33,144.58Z"/><path class="cls-2" d="M351.73,250.48c4.65,5.62,11,6.17,17.13,8.3l-24.4,26.41c.41-6.54-1.27-11.67-6-15.82,4.59-1.14,8.56-2.61,11.24-6.21S352.1,255.43,351.73,250.48Z"/><path class="cls-2" d="M334.48,295.92,314.24,318l-.48-.47c1.58-7.11,3.19-14.22,4.73-21.34.33-1.51.51-2.62,2.52-1.57C325,296.68,329.19,297.11,334.48,295.92Z"/><path class="cls-2" d="M241.06,221.85c-2.28-4.21-2.43-7.79-.12-11.9,3.44-6.11,6.17-12.62,9.46-19a17.57,17.57,0,0,0,8.23,15.66C245.15,207.74,241.57,210.83,241.06,221.85Z"/><path class="cls-2" d="M259.37,171.67a19.19,19.19,0,0,0,9.59,9c-6.23-.42-11.25.63-16.16,4.77Z"/><path class="cls-2" d="M242.24,225.33c2.65,4.16,5.25,6.94,9,8.6C243.67,234.43,245.36,236.65,242.24,225.33Z"/><path class="cls-2" d="M275.34,153.09l-6.86.38C270.05,148.2,270.05,148.2,275.34,153.09Z"/><path class="cls-3" d="M359.73,243.06a11.13,11.13,0,0,0,7.84.21c3.67-1.14,7.26.16,10.75,1.28a47.64,47.64,0,0,1,18,10.33c10,9.26,20.15,18.42,24.15,32.19a14.57,14.57,0,0,1,.66,6.49,9.81,9.81,0,0,0,.17,4.37c.41,1.34,1.63,2.52.94,4.26a6,6,0,0,1-4-4.8,44,44,0,0,0-8-17.16c-1.3-1.73-.08-2.4.83-3.2,1.55-1.37,1.5-2.31-.11-3.72-7.48-6.54-14.83-13.22-22.26-19.81-.61-.55-1.39-2-2.29-.6-1.38,2.2-2.75,1.24-4.25.36a56.37,56.37,0,0,0-17.26-7c-2.07-.42-4-1.09-5.1-3.15Z"/><path class="cls-3" d="M407.66,243.75a12.39,12.39,0,0,1,12-12.36,9.66,9.66,0,0,1,9.94,9.66,12.8,12.8,0,0,1-12.15,12.43A9.58,9.58,0,0,1,407.66,243.75Zm10.14.86a3.83,3.83,0,0,0,2.91-3.13c.16-.89-.5-1.39-1.33-1.21a3.41,3.41,0,0,0-2.86,2.9C416.39,243.93,416.55,244.64,417.8,244.61Z"/><path class="cls-3" d="M359.79,243.14l-.09,0s.06-.09,0-.1Z"/><path class="cls-3" d="M334.05,81.37a15.43,15.43,0,0,1,15-15.11,13.32,13.32,0,0,1,13.64,13.4c0,8.09-7.37,15.34-15.4,15.22A13.44,13.44,0,0,1,334.05,81.37ZM347.13,86c3.45,0,6.82-3.18,6.69-6.33-.11-2.81-1.58-4.56-4.56-4.64a6.54,6.54,0,0,0-6.39,6.25A4.48,4.48,0,0,0,347.13,86Z"/><path class="cls-3" d="M342.91,173.23c-1.22-.11-2.45-.2-3-1.56C341.17,171.65,342.43,171.68,342.91,173.23Z"/><path class="cls-3" d="M340,171.72c-1.1.74-1.8.28-2.31-.76C338.78,170.17,339.41,170.85,340,171.72Z"/><path class="cls-3" d="M319.32,254.29c-1,.72-1.54.46-1.55-.79C318.45,253.44,319.24,253.18,319.32,254.29Z"/><path class="cls-2" d="M417.8,244.61c-1.25,0-1.41-.68-1.28-1.44a3.41,3.41,0,0,1,2.86-2.9c.83-.18,1.49.32,1.33,1.21A3.83,3.83,0,0,1,417.8,244.61Z"/><path class="cls-2" d="M347.13,86a4.48,4.48,0,0,1-4.26-4.72,6.54,6.54,0,0,1,6.39-6.25c3,.08,4.45,1.83,4.56,4.64C354,82.86,350.58,86.08,347.13,86Z"/><text class="cls-4" transform="translate(83 478.4)">KALSAN A<tspan class="cls-5" x="302.59" y="0">U</tspan><tspan class="cls-6" x="341.06" y="0">T</tspan><tspan class="cls-7" x="372.13" y="0">O</tspan><tspan class="cls-8"><tspan x="18.37" y="67.3">S</tspan><tspan class="cls-9" x="55.5" y="67.3">P</tspan><tspan x="88.7" y="67.3">ARE </tspan><tspan class="cls-9" x="218.43" y="67.3">P</tspan><tspan class="cls-10" x="251.63" y="67.3">A</tspan><tspan class="cls-11" x="295.04" y="67.3">R</tspan><tspan x="332.4" y="67.3">TS</tspan></tspan></text></svg>