<svg id="Layer_1" data-name="Layer 1" xmlns="http://www.w3.org/2000/svg" viewBox="0 0 595.28 595.28"><defs><style>.cls-1{fill:#dfe6ef;}.cls-2,.cls-4{fill:#2a4ca0;}.cls-2{stroke:#dfe6ef;stroke-miterlimit:10;stroke-width:7.12px;}.cls-3{fill:#fff;}.cls-5{fill:#fefefe;}</style></defs><circle class="cls-1" cx="305.67" cy="308.04" r="223.49"/><path class="cls-2" d="M254.31,371c1.34-9.21,2.65-18.25,4-27.64l44.25,16.81c7.13,2.71,14.22,5.51,21.38,8.12,2.16.79,3.16,1.63,2.5,4.17-1.75,6.81-3.45,13.65-4.72,20.56-.59,3.25-1.91,3.27-4.51,2.56q-28.8-7.84-57.64-15.52c-.85-.23-1.72-.36-2.79-.58.15,4.67,1.95,7.1,6.7,8.23,17.74,4.24,35.36,9,53.09,13.37,3.11.77,3.33,1.69,2.34,4.47-4.92,13.75-9.62,27.58-14.61,42,8.67-2.46,15-7.73,20-13.79,27.72-33.21,58.06-64,87.15-96,2.32-2.56,1.53-3.39-.88-4.66-6.11-3.22-12.41-6.06-19.19-7.41-5.17-1-7.86-4.34-10.09-8.65-1.21-2.35.75-3,1.7-4q25.15-26.71,50.42-53.33c11.14-11.77,22.34-23.48,33.37-35.36,1.86-2,3.43-2.3,5.77-1.27,6.72,3,13.48,5.85,19.35,10.35,17.8,13.63,34.49,28.45,49,45.64,5.33,6.33,10,13.11,12.24,21.24.45,1.61.43,2.78-.8,4.05-4.37,4.49-8.64,9.09-13.24,14-5-14.31-14-25.3-24-35.65-12.27-12.79-25-25.08-39.79-35-5.34-3.6-10.86-6.93-17.3-8.25-1.92-.39-3.86-.77-4.78,1.82,10.28,2.59,18.59,8.47,26.39,15a338.71,338.71,0,0,1,38.86,37.46,96.38,96.38,0,0,1,15.34,23.66c1.6,3.52,1.6,6-1.61,8.39a28.39,28.39,0,0,0-3.32,3.45c-5.93-15.9-16.61-28.07-28.12-39.65-10.91-11-22.15-21.56-35-30.31-5.7-3.88-11.53-7.5-18.5-8.82-2-.37-3.55-.45-4.36,1.94,9.91,2.3,18,8,25.62,14.22a326.54,326.54,0,0,1,41.3,40.08,94.44,94.44,0,0,1,13.45,21.16c1.86,3.95,1.58,6.61-1.82,9.15a24.49,24.49,0,0,0-2.64,2.71c-5.26-14.49-14.68-25.86-25.06-36.54-11.94-12.28-24.26-24.14-38.5-33.79-5.21-3.54-10.58-6.85-16.83-8.22-1.86-.41-4.12-1.4-5.44,1.34,22,7.56,36.9,24.5,53,39.77,9.28,8.79,17.58,18.42,24.07,29.55,6.19,10.62,6.27,10.64-2.19,19.55Q488.27,372,468.64,392.79c-3.5,3.7-5,3.76-9,.63a15.47,15.47,0,0,1-5.7-9.37c-1.41-6.58-4.85-12.19-8.56-17.66-.89-1.32-1.51-2.48-3.23-.57-31.66,34.88-65.75,67.52-95.63,104.06-6.32,7.73-7.1,15.8-5,24.79,1,4.36,2.26,8.69,3.65,12.95.78,2.36.74,3.27-2.18,3.75-44.55,7.3-87.11,1.26-127.72-18.58-2.52-1.23-3.24-3.14-4-5.46q-27.81-87.91-55.64-175.83a7.27,7.27,0,0,0-4.76-5.2c-22.41-8.78-44.71-17.85-67.16-26.54-7.31-2.83-11.69-7.54-14-15.08-6-19.91-12.28-39.73-18.71-59.5a23.34,23.34,0,0,1,1.68-19.39c11-20.6,21.61-41.38,32.31-62.12,1.37-2.66,2.72-5.21,6.16-4.94,3.6.29,4.76,3.09,5.7,6.1q12.06,38.78,24.21,77.53c3,9.63,8.82,14,18.81,14.15,7.81.13,15.61.09,23.41.24,4,.08,6.88-1.75,9.06-4.89q7.83-11.25,15.57-22.58a17.36,17.36,0,0,0,2.23-15.45c-10.56-35.25-20.8-70.6-32.53-105.49-1-3-1.72-6-2.45-9.09-.84-3.5.62-6,3.41-8.12,2.61-2,5.08-1.93,7.93-.5q36.65,18.52,73.34,36.94A18.24,18.24,0,0,1,249.38,99q11.5,36.36,23.23,72.66a21.82,21.82,0,0,1-1.24,16.94c-14.81,30.72-29.47,61.52-44.25,92.26a8.35,8.35,0,0,0-.51,6.78q13.26,40.75,26.29,81.57C253.12,369.87,253.2,370.65,254.31,371Zm130.82-51.86-.06.12.1,0c1.32,2.52,3.71,3.34,6.24,3.85a69.06,69.06,0,0,1,21.08,8.52c1.84,1.08,3.5,2.24,5.2-.44,1.1-1.74,2,.06,2.79.73,9.08,8.06,18.06,16.21,27.2,24.2,2,1.72,2,2.88.13,4.55-1.1,1-2.6,1.8-1,3.91a53.57,53.57,0,0,1,9.76,21,7.29,7.29,0,0,0,4.94,5.86c.85-2.13-.65-3.58-1.14-5.21a11.66,11.66,0,0,1-.21-5.34,17.92,17.92,0,0,0-.81-7.93c-4.89-16.83-17.36-28-29.51-39.33a58,58,0,0,0-22-12.62c-4.26-1.37-8.65-3-13.14-1.56A13.6,13.6,0,0,1,385.13,319.14Zm58.53.83a11.7,11.7,0,0,0,12,11.88c7.84-.09,14.87-7.29,14.84-15.18a11.8,11.8,0,0,0-12.14-11.8A15.13,15.13,0,0,0,443.66,320Z"/><path class="cls-3" d="M198.53,484.06C129.84,443.37,95,366.17,99.81,297.68l6.55,2.57c12.1,4.81,24.18,9.66,36.3,14.39,1.93.75,3.25,1.6,3.93,3.77q26,82.41,52.08,164.8C198.71,483.33,198.63,483.49,198.53,484.06Z"/><path class="cls-3" d="M441.58,382.17c1.78,1.87,1.75,4.06,2.34,6,2.73,9.14,8.36,15.34,17.8,17.82,5.2,1.37,9.34,0,12.95-3.93,7.65-8.24,15.44-16.36,23.15-24.55a19.87,19.87,0,0,1,3.23-3.11,166.75,166.75,0,0,1-17.43,38.76q-43.22,70.92-123.06,93.89c-3.18.92-4.55.47-5.28-2.84-1-4.67-2.65-9.21-3.69-13.88a15.07,15.07,0,0,1,3-13.41c19.32-24.58,41.75-46.32,62.9-69.23C425.44,399.15,433.51,390.73,441.58,382.17Z"/><path class="cls-3" d="M493.89,221.54c-6.7-3.55-12.36-6.58-18.41-8.74-7.36-2.62-10.72-1.76-16,3.87q-35.4,37.46-70.82,74.92c-2.29,2.43-3.13,2.15-4.48-.64-.88-1.84-2.46-3.34-4-5.34,7-1.88,13.53-4.46,15.49-12.22,1.82-7.24.14-13.88-5.09-19.81,1.08-.31,1.77-.54,2.47-.72,9.07-2.24,13.81-6.86,14.64-14.29,1-8.94-3.11-17.19-11-20.84-6.24-2.9-12.77-5.17-19.13-7.81-1.11-.46-3.28-.46-2.78-2.26.62-2.22,2.48-.79,3.76-.45,8.84,2.29,17.64,4.73,26.49,7,7,1.8,12.68-1.67,14.1-8.74,1.71-8.52,3.31-17.07,4.72-25.64,1.2-7.31-1.95-11.79-9.12-13.6-4.5-1.14-9-2.38-13.52-3.34-2.08-.45-2.64-1.07-2.1-3.29,2.41-9.74,4.63-19.53,6.84-29.32.49-2.13.9-3.12,3.4-1.65C446.73,150.67,474.69,181.26,493.89,221.54Z"/><path class="cls-4" d="M413.11,179.1c-1.47,7.72-3.06,15.19-4.26,22.73-.57,3.57-2.59,1.58-3.86,1.24q-32.75-8.65-65.45-17.49c-14.87-4-29.72-8.08-44.63-11.94-2.41-.62-3.12-1.33-2.66-3.88,1.13-6.34,2-12.73,2.74-19.12.25-2.22.83-2.74,3-2.19q56.19,13.94,112.4,27.73C412.07,176.59,413.83,176.89,413.11,179.1Z"/><path class="cls-3" d="M281.41,163.91q-1.87-5.86-3.76-11.75c-4.45-14-8.71-28-13.45-41.92-1.42-4.15-.55-5,3.55-5.79a219.89,219.89,0,0,1,63.2-2c1.46.16,2.91.54,4.34.81-5.18,11.87-7.47,24.46-11.06,36.65-.88,3-1.76,3.75-4.78,2.89-6.62-1.88-13.34-3.43-20-5-8.25-2-13.82,1.92-15,10.34-.71,5.2-1.44,10.39-2.16,15.59Z"/><path class="cls-4" d="M397.14,119.43c-1.07,8.5-4,17.64-5.91,27-1.05,5.12-2.37,10.19-3.53,15.29-.45,2-1.05,2.94-3.57,2.29-16.35-4.22-32.74-8.26-49.14-12.23-2.46-.59-2.57-1.69-2-3.74,3.18-11.21,6.26-22.45,9.39-33.67a17.8,17.8,0,0,1,6.66-9.86c5.87-4.31,11.23-9.61,18.6-11.36C386.66,88.66,396.77,105.48,397.14,119.43Zm-43.43,2.13a16.44,16.44,0,0,0,16.17,16.51c9.82.14,18.79-8.72,18.83-18.59A16.28,16.28,0,0,0,372,103.1,18.88,18.88,0,0,0,353.71,121.56Z"/><path class="cls-4" d="M358.25,231.07c-.27-2.16-2.37-1.87-3.62-2.41q-31.81-13.87-63.74-27.52c-3.11-1.33-6-2.91-7.17-6.3-1.05-3.05-.75-5.45,3.17-6.41a13.14,13.14,0,0,1,8.32.32l94.87,37.76a17,17,0,0,1,2,.92c3.93,2.2,6.09,7.39,4.65,11.14-1.12,2.94-6.57,4.94-10.62,3.42-6-2.26-11.83-5-17.78-7.37-1.23-.5-2.33-1.89-3.94-1l.12.13c-.58-1.89-2.13-1.92-3.7-1.9l.11.06c-.69-1.06-1.46-1.89-2.81-.93Z"/><path class="cls-4" d="M355.49,267c-.29-2.15-2.37-1.87-3.63-2.42q-36.33-15.86-72.75-31.46c-3.35-1.43-6.09-3.24-7.14-6.87-.78-2.66-.23-4.6,2.86-5.45a13.16,13.16,0,0,1,8.76.13q47.64,19,95.29,37.89c.28.11.59.16.86.28,4.75,2.28,7.25,7.84,5.39,12-1.31,2.9-7.09,4.55-11.33,2.91-4.59-1.77-9-4-13.58-5.82-1.51-.62-2.91-2-4.8-1.25Z"/><path class="cls-4" d="M333.93,331.93c-7.38-4.48-15.57-7.2-23.41-10.67-17.34-7.67-34.79-15.07-52.2-22.59-5.12-2.22-8.42-6.89-7.18-10.06,1-2.65,7.31-3.78,11.95-1.94q47.48,18.81,94.9,37.7c.28.11.57.2.84.32,4.91,2.25,7.41,7.4,5.71,11.77-1.24,3.18-7,4.85-11.55,3.08s-8.75-3.84-13.18-5.63c-1.31-.53-2.5-1.75-4.14-1.16l.05.09c-.1-1.35-1.06-1-1.89-1Z"/><path class="cls-4" d="M249.6,319.18a10.57,10.57,0,0,1,4.81,1.06q47,18.74,94.09,37.44c3.75,1.48,6.51,3.65,7.09,7.86.67,4.92-1.14,7.25-6.07,8a13.16,13.16,0,0,1-7.41-1.22q-46.46-20.13-92.94-40.22a18,18,0,0,1-2.85-1.31c-3-1.94-5.08-4.78-4.21-8.27S246.8,319.68,249.6,319.18Z"/><path class="cls-4" d="M344.68,299.41c-8.12-4.7-17-7.73-25.54-11.5-16.53-7.31-33.14-14.43-49.76-21.53-3.4-1.45-5.9-3.5-6.66-7.23-.48-2.36.13-4,2.73-4.78,3-.89,5.77-1.22,8.75,0q47.88,19.05,95.79,38a12.57,12.57,0,0,1,1.6.8c3.94,2.27,6,7.49,4.48,11.22-1.13,2.74-6.37,4.74-10.3,3.33-5.61-2-11-4.57-16.55-6.84-1.5-.61-2.87-1.65-4.62-1.57Z"/><path class="cls-3" d="M150.24,205.66c-4.05,0-8.11.26-12.13-.06-5.77-.46-8.36-6.2-5.21-11a211,211,0,0,1,36-41.73c2.75-2.47,3.47-1.88,4.34,1.32,2,7.22,4.14,14.37,6.39,21.5a9.68,9.68,0,0,1-1.57,9.26c-4.13,5.69-8.2,11.45-12,17.38-1.73,2.71-3.59,3.93-6.85,3.58a81.45,81.45,0,0,0-9-.07Z"/><path class="cls-4" d="M364.43,233.67c1.18,2.31,3.46,4.7,1.29,7.27s-5.07,1.7-7.87.58q-26.25-10.43-52.54-20.74c-.28-.11-.53-.29-.82-.38-2.8-.9-5.55-2.75-4.39-5.65s4.6-2.22,7.2-1.3c15.77,5.62,31.51,11.32,47.26,17,1.19.42,2.31,1.34,3.69.64l-.1,0c.62,1.27,1.47,1.84,2.81.93l-.11-.06c.71,1.65,2.21,1.76,3.7,1.9Z"/><path class="cls-4" d="M335.67,332.75c-.71.39-.55.86-.2,1.42,1.21,2,2.21,4.19.22,6.12s-4.27,1.66-6.7.68c-8.72-3.51-17.49-6.92-26.24-10.36l-26.68-10.48a30.48,30.48,0,0,1-2.89-1.22c-2-1-3.65-2.71-3-5s3.08-2.13,5-1.91a20.91,20.91,0,0,1,4.73,1.3c16.72,6,33.42,12.08,50.15,18,1.19.42,2.38,2.05,3.89.54l-.1-.05q0,2.3,1.89,1Z"/><path class="cls-4" d="M344.6,299.31c-.09.12-.28.27-.25.36.68,2.38,2.95,4.86.41,7.18s-5.21,1.16-8,.07c-17.32-6.89-34.68-13.68-52-20.5-.83-.33-1.68-.63-2.47-1-2-1-3.64-2.78-3-5s3.13-2.11,5-1.86a25.29,25.29,0,0,1,5.13,1.5q27.12,9.84,54.2,19.75c.63.23.72-.11,1-.41Z"/><path class="cls-4" d="M355.42,266.94c-.45.68.08,1,.46,1.46,1.5,1.73,2.29,3.91.94,5.76-1.53,2.1-4,2.41-6.51,1.42q-28-11-55.91-22c-2.41-1-4.63-3-3.43-5.43s4.35-2.21,6.86-1.31c13.37,4.79,26.69,9.74,40.1,14.41,5.82,2,11.37,4.91,17.56,5.82Z"/><path class="cls-4" d="M365.06,198.79c-.47,3.47-1.1,7.47-1.52,11.49-.24,2.19-1.08,2.41-2.92,1.57-10.87-5-21.72-10-32.69-14.73-3.43-1.47-1.6-3.66-1.37-5.6.69-5.71.75-5.68,6.17-4.25q14.75,3.89,29.5,7.73C364,195.45,366,195.54,365.06,198.79Z"/><path class="cls-3" d="M375.32,328.19c5.68,6.86,13.44,7.54,20.94,10.14L366.44,370.6c.5-8-1.56-14.26-7.34-19.33,5.6-1.39,10.45-3.18,13.74-7.58S375.77,334.24,375.32,328.19Z"/><path class="cls-3" d="M354.25,383.72l-24.73,27-.59-.58c1.93-8.69,3.9-17.37,5.78-26.08.4-1.83.62-3.19,3.08-1.91C342.61,384.65,347.78,385.17,354.25,383.72Z"/><path class="cls-3" d="M240.1,293.21c-2.79-5.14-3-9.52-.15-14.53,4.21-7.47,7.54-15.43,11.56-23.18-.08,8.07,3.09,14.39,10.06,19.14C245.1,276,240.73,279.74,240.1,293.21Z"/><path class="cls-3" d="M262.47,231.9c2.54,5,6.21,8.37,11.72,11-7.61-.52-13.74.77-19.75,5.82Z"/><path class="cls-3" d="M241.54,297.46c3.23,5.08,6.42,8.48,11.06,10.51C243.29,308.58,245.36,311.3,241.54,297.46Z"/><path class="cls-3" d="M282,209.2l-8.39.46C275.52,203.22,275.52,203.22,282,209.2Z"/><path class="cls-5" d="M385.1,319.13a13.64,13.64,0,0,0,9.57.26c4.49-1.41,8.88.19,13.14,1.56a58,58,0,0,1,22,12.62c12.15,11.31,24.62,22.5,29.51,39.33a17.92,17.92,0,0,1,.81,7.93,11.66,11.66,0,0,0,.21,5.34c.49,1.63,2,3.08,1.14,5.21a7.29,7.29,0,0,1-4.94-5.86,53.57,53.57,0,0,0-9.76-21c-1.59-2.11-.09-2.93,1-3.91,1.89-1.67,1.84-2.83-.13-4.55-9.14-8-18.12-16.14-27.2-24.2-.75-.67-1.69-2.47-2.79-.73-1.7,2.68-3.36,1.52-5.2.44a69.06,69.06,0,0,0-21.08-8.52c-2.53-.51-4.92-1.33-6.24-3.85Z"/><path class="cls-5" d="M443.66,320a15.13,15.13,0,0,1,14.69-15.1,11.8,11.8,0,0,1,12.14,11.8c0,7.89-7,15.09-14.84,15.18A11.7,11.7,0,0,1,443.66,320Zm12.39,1a4.69,4.69,0,0,0,3.56-3.83c.2-1.09-.62-1.69-1.63-1.48a4.17,4.17,0,0,0-3.49,3.54C454.33,320.19,454.53,321.06,456.05,321Z"/><path class="cls-5" d="M385.17,319.22l-.1,0s.06-.12.05-.13S385.17,319.22,385.17,319.22Z"/><path class="cls-5" d="M353.71,121.56A18.88,18.88,0,0,1,372,103.1a16.28,16.28,0,0,1,16.67,16.38c0,9.87-9,18.73-18.83,18.59A16.44,16.44,0,0,1,353.71,121.56Zm16,5.71c4.21,0,8.32-3.89,8.17-7.73-.14-3.44-1.93-5.58-5.58-5.67-4-.11-7.88,3.66-7.8,7.63C364.57,125.07,366.66,126.84,369.71,127.27Z"/><path class="cls-5" d="M364.55,233.8c-1.49-.14-3-.25-3.7-1.9C362.42,231.88,364,231.91,364.55,233.8Z"/><path class="cls-5" d="M361,232c-1.34.91-2.19.34-2.81-.93C359.5,230.07,360.27,230.9,361,232Z"/><path class="cls-5" d="M335.72,332.84q-1.87,1.34-1.89-1C334.66,331.81,335.62,331.49,335.72,332.84Z"/><path class="cls-3" d="M456.05,321c-1.52,0-1.72-.83-1.56-1.77a4.17,4.17,0,0,1,3.49-3.54c1-.21,1.83.39,1.63,1.48A4.69,4.69,0,0,1,456.05,321Z"/><path class="cls-3" d="M369.71,127.27c-3-.43-5.14-2.2-5.21-5.77-.08-4,3.82-7.74,7.8-7.63,3.65.09,5.44,2.23,5.58,5.67C378,123.38,373.92,127.32,369.71,127.27Z"/></svg>