<svg id="Layer_1" data-name="Layer 1" xmlns="http://www.w3.org/2000/svg" viewBox="0 0 595.28 595.28"><defs><style>.cls-1{fill:#dfe6ef;}.cls-2{fill:#272323;}.cls-3{fill:#2a4ca0;}.cls-4{fill:#fefefe;}</style></defs><circle class="cls-1" cx="302.61" cy="324.36" r="221.53"/><path class="cls-2" d="M250.61,386.24c1.33-9.17,2.64-18.16,4-27.51,14.89,5.65,29.47,11.18,44,16.73,7.09,2.7,14.15,5.49,21.28,8.08,2.14.79,3.14,1.62,2.49,4.15-1.74,6.78-3.44,13.59-4.7,20.47-.59,3.23-1.9,3.25-4.49,2.55q-28.67-7.81-57.37-15.45c-.84-.23-1.71-.36-2.77-.58.14,4.64,1.93,7.07,6.66,8.19,17.66,4.22,35.2,9,52.84,13.31,3.1.76,3.32,1.68,2.33,4.45-4.9,13.68-9.57,27.44-14.53,41.8,8.62-2.45,14.9-7.69,19.94-13.73,27.59-33.05,57.78-63.73,86.74-95.54,2.31-2.54,1.53-3.37-.87-4.63-6.09-3.2-12.36-6-19.11-7.38-5.15-1-7.82-4.32-10-8.61-1.2-2.34.75-3,1.7-4q25-26.58,50.17-53.08c11.09-11.71,22.24-23.37,33.22-35.2,1.85-2,3.41-2.29,5.75-1.26,6.68,2.94,13.41,5.83,19.25,10.3,17.72,13.57,34.33,28.32,48.74,45.43,5.3,6.3,9.9,13.05,12.17,21.14.45,1.6.43,2.76-.79,4-4.35,4.47-8.6,9.05-13.18,13.89-4.92-14.23-14-25.18-23.87-35.48-12.21-12.73-24.9-25-39.6-34.87-5.32-3.59-10.81-6.9-17.22-8.21-1.91-.39-3.84-.77-4.75,1.81,10.23,2.57,18.5,8.43,26.26,14.88a337.21,337.21,0,0,1,38.68,37.28,96.12,96.12,0,0,1,15.26,23.55c1.6,3.5,1.6,6-1.6,8.35a28.22,28.22,0,0,0-3.3,3.44c-5.9-15.83-16.54-27.94-28-39.46-10.86-10.93-22.05-21.47-34.82-30.18-5.67-3.86-11.47-7.47-18.41-8.77-2-.38-3.53-.45-4.34,1.92,9.86,2.3,17.95,7.94,25.5,14.16A324.85,324.85,0,0,1,505,322.13a94.37,94.37,0,0,1,13.39,21.06c1.85,3.93,1.57,6.58-1.82,9.11a23.43,23.43,0,0,0-2.62,2.7c-5.23-14.42-14.61-25.74-25-36.37-11.88-12.22-24.14-24-38.31-33.64-5.19-3.52-10.54-6.81-16.76-8.18-1.85-.41-4.1-1.39-5.41,1.34,21.9,7.53,36.73,24.39,52.77,39.58,9.23,8.75,17.5,18.34,24,29.41,6.16,10.57,6.24,10.6-2.18,19.46q-19.59,20.64-39.13,41.33c-3.48,3.68-5,3.74-9,.62a15.4,15.4,0,0,1-5.68-9.32c-1.4-6.55-4.82-12.13-8.52-17.58-.89-1.31-1.5-2.46-3.22-.57-31.5,34.73-65.44,67.2-95.17,103.58-6.3,7.7-7.08,15.73-5,24.67,1,4.34,2.24,8.65,3.63,12.89.77,2.35.74,3.26-2.17,3.74-44.34,7.26-86.7,1.25-127.12-18.5-2.51-1.22-3.23-3.12-4-5.43q-27.69-87.51-55.38-175a7.24,7.24,0,0,0-4.74-5.18c-22.31-8.73-44.5-17.76-66.85-26.41-7.27-2.82-11.63-7.5-13.88-15C61,260.6,54.71,240.87,48.3,221.2A23.24,23.24,0,0,1,50,201.9c10.91-20.51,21.51-41.19,32.16-61.84,1.36-2.64,2.7-5.18,6.13-4.91,3.58.29,4.74,3.08,5.67,6.07q12,38.6,24.09,77.17c3,9.58,8.79,13.92,18.73,14.08,7.77.13,15.54.09,23.31.24,4,.08,6.84-1.74,9-4.86q7.78-11.21,15.49-22.48A17.25,17.25,0,0,0,186.79,190c-10.5-35.08-20.69-70.27-32.37-105-1-3-1.71-6-2.44-9-.84-3.48.61-6,3.39-8.08,2.6-2,5.06-1.93,7.89-.5q36.48,18.43,73,36.77a18.16,18.16,0,0,1,9.44,11.33q11.45,36.19,23.11,72.32a21.66,21.66,0,0,1-1.23,16.86c-14.74,30.58-29.32,61.24-44,91.84a8.25,8.25,0,0,0-.52,6.74c8.81,27,17.47,54.12,26.17,81.19C249.42,385.11,249.5,385.89,250.61,386.24Zm130.2-51.61-.06.11.11,0c1.31,2.5,3.68,3.31,6.2,3.83A68.53,68.53,0,0,1,408,347c1.83,1.08,3.49,2.24,5.18-.43,1.1-1.74,2,.06,2.78.72,9,8,18,16.14,27.07,24.09,2,1.72,2,2.87.13,4.53-1.1,1-2.58,1.79-1,3.89a53.28,53.28,0,0,1,9.72,20.88,7.25,7.25,0,0,0,4.91,5.83c.85-2.12-.64-3.56-1.13-5.18a11.53,11.53,0,0,1-.21-5.31,17.78,17.78,0,0,0-.8-7.9c-4.87-16.75-17.28-27.89-29.38-39.14a57.65,57.65,0,0,0-21.92-12.57c-4.24-1.36-8.6-2.95-13.07-1.55A13.55,13.55,0,0,1,380.81,334.63Zm58.25.82A11.66,11.66,0,0,0,451,347.28c7.79-.09,14.8-7.26,14.77-15.12a11.76,11.76,0,0,0-12.09-11.75A15.09,15.09,0,0,0,439.06,335.45Z"/><path class="cls-3" d="M195.09,498.77c-68.38-40.5-103-117.34-98.26-185.51,2.26.89,4.39,1.72,6.52,2.57,12,4.78,24.06,9.6,36.13,14.31,1.92.75,3.23,1.6,3.91,3.75q25.85,82,51.84,164A3.76,3.76,0,0,1,195.09,498.77Z"/><path class="cls-3" d="M437,397.35c1.77,1.87,1.74,4,2.33,6,2.71,9.1,8.32,15.26,17.71,17.74,5.18,1.36,9.3,0,12.9-3.92,7.61-8.2,15.36-16.28,23-24.43a19.68,19.68,0,0,1,3.21-3.1,165.62,165.62,0,0,1-17.35,38.58q-43,70.59-122.48,93.46c-3.17.91-4.53.46-5.26-2.84-1-4.65-2.64-9.16-3.67-13.81a15,15,0,0,1,3-13.34c19.24-24.47,41.56-46.11,62.61-68.91C420.93,414.26,429,405.88,437,397.35Z"/><path class="cls-3" d="M489.07,237.48c-6.68-3.53-12.3-6.55-18.33-8.7-7.32-2.61-10.67-1.75-16,3.85q-35.25,37.28-70.49,74.57c-2.28,2.42-3.12,2.14-4.46-.64-.88-1.83-2.45-3.32-4-5.31,6.94-1.87,13.47-4.44,15.42-12.16,1.82-7.21.14-13.82-5.06-19.72,1.07-.31,1.76-.54,2.46-.72,9-2.22,13.74-6.83,14.57-14.22,1-8.9-3.1-17.11-10.93-20.75-6.21-2.88-12.71-5.14-19-7.77-1.11-.46-3.27-.46-2.77-2.24.62-2.22,2.47-.79,3.74-.46,8.8,2.29,17.57,4.71,26.37,7,7,1.79,12.62-1.66,14-8.69,1.71-8.48,3.3-17,4.7-25.53,1.19-7.27-1.94-11.73-9.07-13.54-4.49-1.13-8.95-2.36-13.47-3.32-2.06-.44-2.62-1.06-2.08-3.27,2.4-9.7,4.6-19.44,6.81-29.19.48-2.12.89-3.1,3.38-1.63C442.12,166.94,470,197.39,489.07,237.48Z"/><path class="cls-2" d="M408.66,195.24c-1.46,7.68-3,15.12-4.24,22.62-.57,3.56-2.57,1.57-3.84,1.23q-32.59-8.61-65.14-17.4c-14.81-4-29.59-8-44.43-11.89-2.39-.62-3.1-1.32-2.65-3.86,1.13-6.31,2-12.67,2.73-19,.26-2.21.83-2.72,3-2.17Q350,178.6,406,192.33C407.63,192.74,409.38,193,408.66,195.24Z"/><path class="cls-3" d="M277.58,180.12c-1.25-3.9-2.5-7.79-3.74-11.7-4.43-13.92-8.67-27.9-13.39-41.72-1.42-4.13-.54-5,3.53-5.76a219.27,219.27,0,0,1,62.9-2c1.46.16,2.9.54,4.32.82-5.15,11.8-7.43,24.33-11,36.47-.87,3-1.75,3.73-4.76,2.88-6.59-1.87-13.28-3.42-19.95-5-8.21-2-13.75,1.91-14.89,10.29-.7,5.18-1.43,10.34-2.15,15.52Z"/><path class="cls-2" d="M392.76,135.85c-1.06,8.45-4,17.56-5.88,26.87-1,5.1-2.36,10.14-3.51,15.22-.45,2-1,2.92-3.55,2.28q-24.4-6.3-48.92-12.17c-2.44-.6-2.55-1.69-2-3.73,3.17-11.15,6.24-22.34,9.35-33.51a17.68,17.68,0,0,1,6.63-9.81c5.85-4.3,11.18-9.57,18.51-11.31C382.34,105.22,392.4,122,392.76,135.85ZM349.54,138a16.37,16.37,0,0,0,16.1,16.43c9.77.14,18.7-8.68,18.73-18.51a16.21,16.21,0,0,0-16.59-16.3A18.8,18.8,0,0,0,349.54,138Z"/><path class="cls-2" d="M354.06,247c-.27-2.15-2.36-1.86-3.61-2.41Q318.78,230.75,287,217.18c-3.1-1.33-6-2.9-7.14-6.28-1-3-.75-5.42,3.15-6.38a13,13,0,0,1,8.28.33l94.43,37.57a18.54,18.54,0,0,1,2,.92c3.91,2.19,6.06,7.36,4.63,11.09-1.12,2.92-6.54,4.92-10.57,3.4-6-2.24-11.78-4.93-17.69-7.33-1.23-.5-2.33-1.88-3.93-.94l.12.12c-.58-1.88-2.12-1.91-3.68-1.89l.11.06c-.69-1-1.45-1.88-2.8-.93Z"/><path class="cls-2" d="M351.32,282.75c-.3-2.13-2.37-1.85-3.62-2.4Q311.55,264.57,275.28,249c-3.32-1.42-6-3.22-7.1-6.83-.77-2.65-.22-4.58,2.85-5.43a13.17,13.17,0,0,1,8.72.13q47.42,18.87,94.85,37.71c.27.11.58.16.84.29,4.74,2.26,7.23,7.79,5.37,11.91-1.3,2.88-7.05,4.53-11.27,2.9-4.57-1.77-9-4-13.52-5.8-1.5-.61-2.9-2-4.78-1.24Z"/><path class="cls-2" d="M329.85,347.35c-7.34-4.45-15.49-7.16-23.29-10.61-17.26-7.64-34.64-15-52-22.49-5.1-2.21-8.39-6.86-7.15-10,1-2.65,7.28-3.76,11.9-1.93Q306.58,321,353.8,339.83c.28.11.57.2.84.32,4.88,2.23,7.37,7.36,5.68,11.72-1.23,3.16-7,4.82-11.5,3.06s-8.71-3.82-13.11-5.61c-1.31-.52-2.49-1.74-4.13-1.15l.06.09c-.11-1.35-1.06-1-1.89-1Z"/><path class="cls-2" d="M245.92,334.66a10.45,10.45,0,0,1,4.78,1.06q46.83,18.64,93.66,37.26c3.72,1.48,6.48,3.63,7.05,7.82.67,4.9-1.13,7.22-6,8a12.93,12.93,0,0,1-7.37-1.21l-92.51-40a18.74,18.74,0,0,1-2.84-1.3c-3-1.94-5.06-4.76-4.19-8.24S243.13,335.16,245.92,334.66Z"/><path class="cls-2" d="M340.55,315c-8.08-4.68-16.92-7.7-25.42-11.45-16.45-7.28-33-14.36-49.53-21.43-3.38-1.45-5.86-3.48-6.63-7.2-.48-2.35.14-4,2.72-4.76,2.95-.88,5.75-1.21,8.72,0q47.65,19,95.34,37.86a10.75,10.75,0,0,1,1.59.8c3.92,2.25,6,7.45,4.46,11.16-1.13,2.73-6.34,4.72-10.25,3.31-5.59-2-11-4.54-16.48-6.8-1.49-.61-2.86-1.64-4.59-1.56Z"/><path class="cls-3" d="M147,221.67c-4,0-8.07.26-12.07-.06-5.74-.46-8.33-6.16-5.19-11a210.65,210.65,0,0,1,35.81-41.54c2.74-2.46,3.46-1.87,4.33,1.32,1.95,7.18,4.12,14.3,6.36,21.39a9.65,9.65,0,0,1-1.57,9.22c-4.11,5.67-8.16,11.39-11.91,17.3-1.72,2.7-3.58,3.92-6.82,3.56a80.74,80.74,0,0,0-8.94-.07Z"/><path class="cls-2" d="M360.21,249.56c1.18,2.29,3.44,4.67,1.28,7.23s-5,1.69-7.83.58q-26.13-10.38-52.3-20.64c-.27-.11-.52-.29-.81-.38-2.79-.9-5.52-2.74-4.37-5.63s4.58-2.21,7.17-1.29c15.69,5.59,31.36,11.26,47,16.89,1.18.43,2.29,1.34,3.67.65l-.1-.05c.61,1.27,1.46,1.83,2.8.93l-.11-.06c.7,1.65,2.2,1.76,3.68,1.89Z"/><path class="cls-2" d="M331.58,348.17c-.7.39-.54.85-.2,1.42,1.21,2,2.2,4.17.23,6.08s-4.25,1.66-6.67.68c-8.69-3.49-17.41-6.89-26.12-10.32l-26.56-10.42a30.13,30.13,0,0,1-2.87-1.22c-2-1-3.64-2.69-3-4.93s3.06-2.11,5-1.9a21.19,21.19,0,0,1,4.7,1.3c16.64,6,33.27,12,49.92,18,1.18.42,2.37,2,3.87.53l-.1-.05c0,1.53.64,1.84,1.89,1Z"/><path class="cls-2" d="M340.48,314.89c-.09.12-.28.27-.26.35.68,2.37,2.94,4.84.42,7.15s-5.19,1.16-7.93.07c-17.24-6.86-34.52-13.61-51.78-20.4-.82-.33-1.67-.63-2.46-1-2-1-3.61-2.76-3-4.94s3.12-2.1,5-1.84a24.55,24.55,0,0,1,5.1,1.49q27,9.78,53.95,19.65c.62.23.71-.11,1-.4Z"/><path class="cls-2" d="M351.24,282.67c-.44.67.08,1,.46,1.45,1.49,1.72,2.28,3.89.94,5.73-1.53,2.09-4,2.4-6.49,1.42q-27.82-11-55.65-21.94c-2.39-.95-4.6-2.94-3.4-5.41s4.32-2.19,6.82-1.29c13.31,4.76,26.56,9.69,39.91,14.34,5.79,2,11.32,4.88,17.49,5.78Z"/><path class="cls-2" d="M360.84,214.84c-.47,3.45-1.1,7.43-1.52,11.43-.23,2.18-1.07,2.4-2.9,1.56-10.82-4.94-21.62-9.94-32.54-14.65-3.41-1.47-1.59-3.65-1.36-5.58.68-5.68.75-5.65,6.14-4.23q14.67,3.87,29.36,7.69C359.75,211.51,361.8,211.6,360.84,214.84Z"/><path class="cls-3" d="M371.05,343.63c5.65,6.83,13.37,7.5,20.84,10.09l-29.68,32.13c.5-8-1.55-14.2-7.31-19.24,5.58-1.39,10.41-3.18,13.68-7.56S371.5,349.65,371.05,343.63Z"/><path class="cls-3" d="M350.08,398.9l-24.62,26.87-.59-.57c1.93-8.65,3.88-17.3,5.76-26,.39-1.83.62-3.18,3.07-1.91C338.49,399.82,343.63,400.34,350.08,398.9Z"/><path class="cls-3" d="M236.46,308.81c-2.78-5.11-3-9.47-.15-14.46,4.19-7.44,7.51-15.36,11.51-23.07-.08,8,3.07,14.32,10,19.05C241.44,291.65,237.09,295.41,236.46,308.81Z"/><path class="cls-3" d="M258.73,247.79c2.52,5,6.18,8.33,11.66,11-7.58-.52-13.68.77-19.65,5.79Z"/><path class="cls-3" d="M237.89,313c3.22,5.06,6.39,8.45,11,10.47C239.63,324.12,241.69,326.81,237.89,313Z"/><path class="cls-3" d="M278.16,225.2l-8.36.46C271.72,219.25,271.72,219.25,278.16,225.2Z"/><path class="cls-4" d="M380.78,334.61a13.53,13.53,0,0,0,9.53.26c4.47-1.4,8.83.19,13.07,1.55A57.65,57.65,0,0,1,425.3,349c12.1,11.25,24.51,22.39,29.38,39.14a17.78,17.78,0,0,1,.8,7.9,11.53,11.53,0,0,0,.21,5.31c.49,1.62,2,3.06,1.13,5.18a7.25,7.25,0,0,1-4.91-5.83,53.28,53.28,0,0,0-9.72-20.88c-1.57-2.1-.09-2.92,1-3.89,1.89-1.66,1.83-2.81-.13-4.53C434,363.44,425,355.32,416,347.3c-.74-.66-1.68-2.46-2.78-.72-1.69,2.67-3.35,1.51-5.18.43a68.53,68.53,0,0,0-21-8.47c-2.52-.52-4.89-1.33-6.2-3.83Z"/><path class="cls-4" d="M439.06,335.45a15.09,15.09,0,0,1,14.63-15,11.76,11.76,0,0,1,12.09,11.75c0,7.86-7,15-14.77,15.12A11.66,11.66,0,0,1,439.06,335.45Zm12.35,1a4.66,4.66,0,0,0,3.53-3.81c.2-1.08-.61-1.68-1.62-1.47a4.14,4.14,0,0,0-3.47,3.53C449.69,335.66,449.89,336.54,451.41,336.49Z"/><path class="cls-4" d="M380.86,334.71l-.11,0s.06-.11.05-.12S380.86,334.71,380.86,334.71Z"/><path class="cls-4" d="M349.54,138a18.8,18.8,0,0,1,18.24-18.38,16.21,16.21,0,0,1,16.59,16.3c0,9.83-9,18.65-18.73,18.51A16.37,16.37,0,0,1,349.54,138Zm15.92,5.68c4.2,0,8.29-3.87,8.13-7.7-.13-3.42-1.92-5.54-5.54-5.64-4-.11-7.85,3.65-7.77,7.6C360.35,141.46,362.43,143.22,365.46,143.65Z"/><path class="cls-4" d="M360.33,249.68c-1.48-.13-3-.24-3.68-1.89C358.21,247.77,359.75,247.8,360.33,249.68Z"/><path class="cls-4" d="M356.76,247.85c-1.34.9-2.19.34-2.8-.93C355.31,246,356.07,246.8,356.76,247.85Z"/><path class="cls-4" d="M331.64,348.26c-1.25.88-1.88.57-1.89-1C330.58,347.23,331.53,346.91,331.64,348.26Z"/><path class="cls-3" d="M451.41,336.49c-1.52.05-1.72-.83-1.56-1.75a4.14,4.14,0,0,1,3.47-3.53c1-.21,1.82.39,1.62,1.47A4.66,4.66,0,0,1,451.41,336.49Z"/><path class="cls-3" d="M365.46,143.65c-3-.43-5.11-2.19-5.18-5.74-.08-3.95,3.8-7.71,7.77-7.6,3.62.1,5.41,2.22,5.54,5.64C373.75,139.78,369.66,143.7,365.46,143.65Z"/></svg>